<?xml version="1.0" standalone="no"?>
<!DOCTYPE svg PUBLIC "-//W3C//DTD SVG 20010904//EN"
 "http://www.w3.org/TR/2001/REC-SVG-20010904/DTD/svg10.dtd">
<svg version="1.0" xmlns="http://www.w3.org/2000/svg"
 width="163.000000pt" height="93.000000pt" viewBox="0 0 163.000000 93.000000"
 preserveAspectRatio="xMidYMid meet">

<g transform="translate(0.000000,93.000000) scale(0.100000,-0.100000)"
fill="#000000" stroke="none">
<path d="M563 863 c-16 -25 -22 -92 -15 -178 1 -11 -1 -41 -4 -67 -6 -44 -8
-47 -37 -50 -45 -4 -44 -33 1 -33 17 0 32 -3 32 -7 0 -3 3 -13 6 -21 3 -10 -2
-18 -15 -22 -31 -9 -28 -39 4 -33 19 4 36 -6 77 -47 114 -109 288 -107 396 5
38 40 44 43 67 32 22 -10 27 -9 32 5 4 11 -1 22 -15 31 -12 8 -22 23 -22 33 0
15 6 19 32 17 24 -2 33 2 36 15 3 12 -5 19 -26 23 -26 5 -30 11 -36 53 -4 25
-7 78 -6 117 1 68 -15 134 -37 147 -16 10 -81 -12 -112 -38 -27 -23 -33 -24
-78 -15 -26 5 -64 6 -83 2 -29 -7 -42 -3 -83 25 -60 41 -91 42 -114 6z m87
-34 l34 -21 -29 -22 c-17 -11 -40 -32 -52 -45 l-23 -24 0 41 c0 43 14 92 27
92 5 0 24 -10 43 -21z m375 -16 c3 -21 8 -48 11 -60 2 -13 2 -23 -1 -23 -10 0
-95 74 -95 83 0 7 55 36 72 37 4 0 10 -17 13 -37z m-113 -44 c75 -37 116 -89
133 -166 7 -33 7 -33 -34 -33 -22 0 -43 -5 -46 -11 -10 -15 -3 -18 38 -21 20
-2 37 -8 37 -15 0 -19 -18 -25 -41 -13 -30 17 -52 -5 -25 -25 10 -8 24 -16 30
-18 16 -6 -32 -55 -79 -80 -31 -17 -58 -22 -115 -22 -84 0 -133 20 -183 73
l-28 30 31 11 c19 6 30 16 27 23 -4 13 -14 14 -52 7 -12 -3 -21 2 -23 14 -3
14 4 17 32 17 25 0 36 4 36 15 0 11 -11 15 -41 15 l-41 0 7 38 c8 43 43 108
74 136 11 11 45 27 73 38 64 22 128 18 190 -13z"/>
<path d="M904 656 c-12 -9 -15 -20 -11 -38 9 -34 31 -41 58 -19 18 14 20 21
11 38 -15 27 -36 34 -58 19z"/>
<path d="M660 645 c-15 -19 -4 -52 21 -60 38 -12 65 35 37 63 -16 16 -43 15
-58 -3z"/>
<path d="M780 575 c-10 -13 -10 -19 4 -34 15 -17 16 -20 1 -34 -8 -9 -22 -14
-29 -11 -21 8 -30 -16 -13 -33 13 -13 19 -14 44 -1 20 10 36 11 54 4 32 -11
59 -2 59 19 0 10 -10 15 -29 15 -33 0 -43 16 -29 43 5 10 7 25 4 33 -7 19 -50
18 -66 -1z"/>
<path d="M434 625 c-7 -18 3 -35 21 -35 18 0 26 15 19 34 -8 20 -33 21 -40 1z"/>
<path d="M1152 608 c2 -12 11 -24 21 -26 14 -3 18 1 15 20 -2 12 -11 24 -21
26 -14 3 -18 -1 -15 -20z"/>
<path d="M1350 280 c0 -13 5 -20 13 -17 6 2 12 10 12 17 0 7 -6 15 -12 18 -8
2 -13 -5 -13 -18z"/>
<path d="M1260 270 c0 -15 -7 -20 -28 -20 -35 0 -62 -27 -62 -62 0 -38 29 -57
83 -56 l47 1 0 78 c0 72 -2 79 -20 79 -13 0 -20 -7 -20 -20z m-5 -80 c0 -18
-6 -26 -23 -28 -13 -2 -25 3 -28 12 -10 26 4 48 28 44 17 -2 23 -10 23 -28z"/>
<path d="M100 188 c0 -45 3 -58 15 -58 11 0 15 12 15 45 0 38 3 45 20 45 17 0
20 -7 20 -45 0 -33 4 -45 14 -45 10 0 16 14 18 42 2 31 8 44 21 46 14 3 17 -4
17 -42 0 -34 4 -46 15 -46 19 0 21 95 3 107 -7 4 -46 8 -85 9 l-73 0 0 -58z"/>
<path d="M335 236 c-21 -15 -25 -67 -5 -90 15 -19 71 -21 88 -4 22 22 13 28
-28 22 -27 -4 -40 -3 -40 5 0 6 18 11 46 11 42 0 45 1 39 23 -14 44 -62 61
-100 33z m65 -26 c0 -5 -11 -10 -25 -10 -14 0 -25 5 -25 10 0 6 11 10 25 10
14 0 25 -4 25 -10z"/>
<path d="M486 228 c-32 -46 -6 -98 49 -98 57 0 85 60 45 100 -27 27 -75 26
-94 -2z m73 -22 c16 -20 3 -46 -24 -46 -25 0 -38 21 -29 45 8 19 38 19 53 1z"/>
<path d="M634 233 c2 -10 10 -37 17 -60 14 -48 34 -55 51 -18 14 32 26 32 34
-1 10 -40 35 -25 56 35 10 30 16 56 13 59 -11 12 -34 -10 -40 -39 l-7 -33 -21
39 -20 40 -17 -40 -17 -40 -12 38 c-12 36 -48 55 -37 20z"/>
<path d="M850 168 c0 -63 3 -78 15 -78 8 0 15 9 15 20 0 15 7 20 29 20 37 0
61 23 61 60 0 42 -23 60 -75 58 l-45 -2 0 -78z m85 22 c0 -18 -6 -26 -23 -28
-24 -4 -38 18 -28 44 3 9 15 14 28 12 17 -2 23 -10 23 -28z"/>
<path d="M1026 228 c-9 -12 -16 -29 -16 -38 0 -50 69 -79 104 -44 24 23 20 26
-23 19 -24 -4 -42 -2 -46 4 -4 7 10 11 39 11 39 0 46 3 46 19 0 49 -76 70
-104 29z m69 -18 c4 -6 -5 -10 -19 -10 -14 0 -26 5 -26 10 0 6 9 10 19 10 11
0 23 -4 26 -10z"/>
<path d="M1350 190 c0 -47 3 -60 15 -60 12 0 15 13 15 60 0 47 -3 60 -15 60
-12 0 -15 -13 -15 -60z"/>
<path d="M1435 228 c-8 -13 -15 -29 -15 -38 0 -9 7 -25 15 -38 13 -18 25 -21
65 -21 l50 2 0 57 0 57 -50 2 c-40 0 -52 -3 -65 -21z m79 -23 c9 -24 -4 -45
-29 -45 -27 0 -40 26 -24 46 15 18 45 18 53 -1z"/>
</g>
</svg>
